<?xml version="1.0" encoding="UTF-8" standalone="no"?>
<!-- Created with Inkscape (http://www.inkscape.org/) -->

<svg
   xmlns:dc="http://purl.org/dc/elements/1.1/"
   xmlns:cc="http://creativecommons.org/ns#"
   xmlns:rdf="http://www.w3.org/1999/02/22-rdf-syntax-ns#"
   xmlns:svg="http://www.w3.org/2000/svg"
   xmlns="http://www.w3.org/2000/svg"
   xmlns:sodipodi="http://sodipodi.sourceforge.net/DTD/sodipodi-0.dtd"
   xmlns:inkscape="http://www.inkscape.org/namespaces/inkscape"
   id="svg2"
   version="1.1"
   inkscape:version="0.91 r13725"
   width="128"
   height="128"
   viewBox="0 0 128 128"
   sodipodi:docname="crystal-lang.svg">
  <metadata
     id="metadata8">
    <rdf:RDF>
      <cc:Work
         rdf:about="">
        <dc:format>image/svg+xml</dc:format>
        <dc:type
           rdf:resource="http://purl.org/dc/dcmitype/StillImage" />
        <dc:title></dc:title>
      </cc:Work>
    </rdf:RDF>
  </metadata>
  <defs
     id="defs6" />
  <sodipodi:namedview
     pagecolor="#ffffff"
     bordercolor="#666666"
     borderopacity="1"
     objecttolerance="10"
     gridtolerance="10"
     guidetolerance="10"
     inkscape:pageopacity="0"
     inkscape:pageshadow="2"
     inkscape:window-width="889"
     inkscape:window-height="480"
     id="namedview4"
     showgrid="false"
     inkscape:zoom="1.84375"
     inkscape:cx="64"
     inkscape:cy="64"
     inkscape:window-x="49"
     inkscape:window-y="24"
     inkscape:window-maximized="0"
     inkscape:current-layer="svg2" />
  <path
     style="fill:#000000"
     d="M 48.229087,118.68538 C 31.592305,114.12933 17.844969,110.30111 17.679453,110.1782 17.513936,110.05552 13.561354,95.844291 8.8959362,78.598093 L 0.41335041,47.241361 23.698901,23.955814 46.98445,0.67026391 78.697933,9.2395819 l 31.713477,8.5693241 8.47855,31.652924 8.47849,31.652931 -23.0552,23.085169 c -12.680394,12.69688 -23.6808,23.01412 -24.445355,22.92722 -0.764563,-0.0868 -15.002022,-3.88562 -31.638808,-8.44177 z M 57.601354,63.694139 C 61.9168,47.624519 65.440469,33.798502 65.431734,32.969654 65.417132,31.583641 6.994143,46.379524 5.1331164,48.24055 4.3715396,49.002128 47.466943,92.911626 48.975977,92.911626 c 0.428515,0 4.309934,-13.147866 8.625377,-29.217487 z"
     id="path4138"
     inkscape:connector-curvature="0" />
</svg>
