<?xml version="1.0" encoding="UTF-8" standalone="no"?>
<!-- Created with Inkscape (http://www.inkscape.org/) -->

<svg
   xmlns:dc="http://purl.org/dc/elements/1.1/"
   xmlns:cc="http://creativecommons.org/ns#"
   xmlns:rdf="http://www.w3.org/1999/02/22-rdf-syntax-ns#"
   xmlns:svg="http://www.w3.org/2000/svg"
   xmlns="http://www.w3.org/2000/svg"
   xmlns:sodipodi="http://sodipodi.sourceforge.net/DTD/sodipodi-0.dtd"
   xmlns:inkscape="http://www.inkscape.org/namespaces/inkscape"
   id="svg2"
   version="1.1"
   inkscape:version="0.91 r13725"
   width="256"
   height="256"
   viewBox="0 0 256 256"
   sodipodi:docname="postgresql.svg">
  <metadata
     id="metadata8">
    <rdf:RDF>
      <cc:Work
         rdf:about="">
        <dc:format>image/svg+xml</dc:format>
        <dc:type
           rdf:resource="http://purl.org/dc/dcmitype/StillImage" />
        <dc:title></dc:title>
      </cc:Work>
    </rdf:RDF>
  </metadata>
  <defs
     id="defs6" />
  <sodipodi:namedview
     pagecolor="#ffffff"
     bordercolor="#666666"
     borderopacity="1"
     objecttolerance="10"
     gridtolerance="10"
     guidetolerance="10"
     inkscape:pageopacity="0"
     inkscape:pageshadow="2"
     inkscape:window-width="889"
     inkscape:window-height="480"
     id="namedview4"
     showgrid="false"
     inkscape:zoom="0.921875"
     inkscape:cx="128"
     inkscape:cy="128"
     inkscape:window-x="49"
     inkscape:window-y="24"
     inkscape:window-maximized="0"
     inkscape:current-layer="svg2" />
  <path
     style="fill:#000000"
     d="m 144.17275,248.15837 c -13.73712,-4.90805 -20.0504,-18.78015 -20.14187,-44.25749 -0.017,-4.72952 -0.31303,-11.93697 -0.65788,-16.01656 l -0.62701,-7.41743 -5.95172,2.94995 C 102.17433,190.66316 77,185.96013 77,175.98253 c 0,-5.00146 2.982774,-6.95093 14.498367,-9.47578 6.741477,-1.4781 8.528843,-2.31615 11.374083,-5.33298 l 3.37571,-3.5793 -4.87408,-1.21066 C 98.693336,155.71795 95.6,154.89299 94.5,154.55058 92.878796,154.04591 90.24279,156.42048 80.582176,167.08803 65.336217,183.92309 60.682685,186.32913 51.5,182.12455 37.517712,175.72233 24.320661,148.28718 13.115389,102.32738 8.4114938,83.03377 6.6491538,69.859776 7.3861922,59.5 9.3264512,32.22781 21.180978,16.939335 44.688197,11.392571 54.523235,9.071895 72.993948,10.024266 87.5,13.599996 c 13.61118,3.355146 15.48912,3.360655 23.11804,0.06781 9.37025,-4.044444 19.64542,-5.226669 32.33702,-3.720586 9.35347,1.109956 11.22288,1.059903 16.54494,-0.442981 3.83984,-1.084324 11.41659,-1.881915 21.04498,-2.215367 13.31041,-0.460968 16.07743,-0.264042 24,1.70806 9.47186,2.357753 17.65705,5.957503 24.69003,10.858384 6.24772,4.353679 14.45186,13.108106 16.17865,17.263822 7.92943,19.083093 -4.92799,67.096462 -28.33063,105.794882 -2.79858,4.62771 -4.82543,8.67771 -4.50412,9 0.88416,0.88683 18.03413,0.68779 25.54583,-0.29649 6.05753,-0.79373 6.8067,-0.68609 8.75,1.25721 3.29292,3.29292 2.69413,6.57541 -2.03703,11.16685 -8.71802,8.46055 -24.37466,13.55388 -39.34079,12.79812 l -7.44393,-0.3759 -0.51138,4.0181 c -2.84105,22.3231 -5.72191,40.92878 -6.98344,45.10173 -3.32443,10.99671 -10.3638,17.7245 -22.47601,21.48118 -9.77353,3.03133 -17.49707,3.38458 -23.90941,1.09355 z M 168.5,238.12281 c 6.29121,-2.80593 10.23662,-6.49074 12.49041,-11.66542 2.42981,-5.57884 5.65801,-25.91562 8.46497,-53.3271 1.55217,-15.15777 2.47713,-17.79191 7.30855,-20.8137 1.50484,-0.9412 2.91132,-1.83522 3.12552,-1.98671 0.2142,-0.1515 -0.83642,-1.88264 -2.33471,-3.847 -1.49828,-1.96435 -5.96408,-9.5141 -9.924,-16.77722 C 175.26482,107.02458 171.74196,97.63982 171.59987,87 171.41738,73.33519 180.0901,66.102021 196.75,66.024446 199.6375,66.011001 202,65.699871 202,65.333046 202,63.767631 194.47815,51.169907 190.30641,45.748418 170.2631,19.700634 129.88753,9.716542 106.70125,25.074493 96.492692,31.836362 88.317139,45.732136 85.003791,61.953101 c -1.062007,5.199206 -1.736369,9.647654 -1.498582,9.885441 0.237786,0.237788 3.708891,-0.640558 7.713565,-1.951877 8.760435,-2.86858 19.600676,-3.146178 24.382786,-0.624396 9.14102,4.820401 12.83024,15.368181 12.84949,36.737731 0.0124,13.81077 -0.55458,16.29512 -7.33124,32.12148 C 118.85391,143.4133 117,148.17957 117,148.71319 c 0,0.53363 1.74946,1.49439 3.88769,2.13502 4.87018,1.45914 9.9432,6.54533 10.55195,10.57935 0.25501,1.68984 0.7122,14.77244 1.01599,29.07244 0.30379,14.3 0.98637,28.44431 1.51683,31.4318 1.17647,6.62558 5.4007,13.72034 10.05866,16.89388 3.10135,2.113 4.31648,2.3191 11.46888,1.94528 5.36771,-0.28054 9.64518,-1.15188 13,-2.64815 z M 112.27508,176.40253 C 117.37752,173.8348 123,167.92303 123,165.12579 123,162.22357 120.38766,159 118.03574,159 c -0.90986,0 -3.79394,2.47835 -6.40907,5.50745 -5.45042,6.31319 -7.85561,7.75506 -15.922314,9.54513 -6.393184,1.41871 -8.002457,2.62843 -4.495254,3.37917 1.259994,0.26971 3.190898,0.70692 4.290898,0.97158 3.542901,0.85242 13.45448,-0.32976 16.77508,-2.0008 z m -44.793759,-7.70338 c 3.310273,-3.46547 8.671763,-9.32758 11.914422,-13.02691 l 5.895742,-6.72605 -3.211923,-3.99681 C 76.173628,137.60023 73.613092,130.49456 73.62956,121.5 73.71571,74.4491 74.548684,64.149831 79.452722,49.5 82.444233,40.563459 85.625336,34.558811 90.7127,28.245668 93.111791,25.268526 93.744572,23.855267 92.820499,23.538088 83.113338,20.206196 63.007851,17.529678 54.514342,18.438628 21.76034,21.943866 10.144991,44.67645 18.971547,88 c 10.222111,50.17338 26.8311,87 39.237431,87 2.690484,0 4.295442,-1.09062 9.272343,-6.30085 z M 216.19452,167.99212 C 222.54512,167.07359 234,162.86543 234,161.45095 c 0,-0.36251 -3.4875,-0.36649 -7.75,-0.009 -5.74232,0.48181 -9.1748,0.23564 -13.25,-0.95029 -9.66019,-2.81122 -9.67973,-2.81209 -11.96271,-0.52911 -2.92734,2.92734 -2.42082,7.21439 0.96271,8.14806 3.61615,0.99787 6.65034,0.9725 14.19452,-0.11865 z M 109.82452,143.25 c 1.10447,-3.1625 3.73012,-9.8 5.83478,-14.75 3.77572,-8.8802 3.82675,-9.17305 3.83368,-22 0.009,-15.94769 -1.57436,-23.73522 -5.6539,-27.81476 -2.83178,-2.83178 -3.21474,-2.92415 -10.25186,-2.47253 -5.34,0.3427 -9.055654,1.28594 -13.786571,3.4998 l -6.476384,3.03067 -0.624251,21.56145 c -0.717674,24.78826 -0.204758,27.56825 6.48959,35.17343 3.954374,4.49241 7.783094,7.06033 12.803926,8.5876 5.10441,1.55269 5.74434,1.15917 7.83099,-4.81566 z m -6.54839,-58.88296 c -2.52945,-2.52945 -2.55946,-2.6867 -0.76341,-4 2.26196,-1.65398 4.18738,-1.71615 8.33806,-0.26921 3.61575,1.26045 4.23499,4.25072 1.21496,5.86699 -3.18083,1.70232 -6.00241,1.18942 -8.78961,-1.59778 z m 111.14158,45.56558 c 13.36554,-23.76687 22.9494,-52.65593 24.25758,-73.120727 0.8942,-13.988788 -0.26357,-17.317585 -8.75867,-25.182746 -10.81724,-10.015109 -22.90859,-14.997506 -39.49794,-16.275641 -8.26847,-0.637048 -21.44235,0.272104 -21.38894,1.476088 0.0164,0.368723 2.6539,2.172436 5.86121,4.00825 12.41257,7.10476 25.1035,21.129256 32.51354,35.93005 4.63427,9.256487 5.20609,13.749331 3.56418,28.004146 -1.07163,9.30367 -1.09881,14.21675 -0.13911,25.14544 1.12466,12.80722 0.69753,21.09627 -1.35692,26.33252 -1.64735,4.19865 0.76271,1.11978 4.94507,-6.31738 z M 202.1106,118 c -0.67229,-21.58113 -0.62293,-28.28781 0.26214,-35.61693 l 0.85946,-7.11693 -3.42737,-0.64298 c -5.10521,-0.95774 -13.90754,1.02501 -16.62804,3.7455 -5.21769,5.2177 -3.49388,16.31465 5.30198,34.13134 2.98681,6.05 6.85325,13.43812 8.5921,16.41805 2.86941,4.91742 3.2663,5.24082 4.29533,3.5 0.74355,-1.25786 0.99977,-6.22051 0.7444,-14.41805 z M 187.5,83.80505 c -3.25138,-1.84374 -3.62113,-3.19478 -1.38346,-5.05505 2.28294,-1.8979 9.36194,-2.40285 10.38899,-0.74105 1.0791,1.74601 -0.44446,4.6422 -3.0718,5.83929 -3.06382,1.39597 -3.40014,1.39352 -5.93373,-0.0432 z"
     id="path4138"
     inkscape:connector-curvature="0" />
</svg>
