<?xml version="1.0" encoding="UTF-8" standalone="no"?>
<!-- Created with Inkscape (http://www.inkscape.org/) -->

<svg
   xmlns:dc="http://purl.org/dc/elements/1.1/"
   xmlns:cc="http://creativecommons.org/ns#"
   xmlns:rdf="http://www.w3.org/1999/02/22-rdf-syntax-ns#"
   xmlns:svg="http://www.w3.org/2000/svg"
   xmlns="http://www.w3.org/2000/svg"
   xmlns:sodipodi="http://sodipodi.sourceforge.net/DTD/sodipodi-0.dtd"
   xmlns:inkscape="http://www.inkscape.org/namespaces/inkscape"
   id="svg2"
   version="1.1"
   inkscape:version="0.91 r13725"
   width="256"
   height="256"
   viewBox="0 0 256 256"
   sodipodi:docname="rubyonrails.svg">
  <metadata
     id="metadata8">
    <rdf:RDF>
      <cc:Work
         rdf:about="">
        <dc:format>image/svg+xml</dc:format>
        <dc:type
           rdf:resource="http://purl.org/dc/dcmitype/StillImage" />
        <dc:title></dc:title>
      </cc:Work>
    </rdf:RDF>
  </metadata>
  <defs
     id="defs6" />
  <sodipodi:namedview
     pagecolor="#ffffff"
     bordercolor="#666666"
     borderopacity="1"
     objecttolerance="10"
     gridtolerance="10"
     guidetolerance="10"
     inkscape:pageopacity="0"
     inkscape:pageshadow="2"
     inkscape:window-width="889"
     inkscape:window-height="480"
     id="namedview4"
     showgrid="false"
     inkscape:zoom="0.921875"
     inkscape:cx="128"
     inkscape:cy="128"
     inkscape:window-x="49"
     inkscape:window-y="24"
     inkscape:window-maximized="0"
     inkscape:current-layer="svg2" />
  <path
     style="fill:#000000"
     d="M 5.5330996,168.75 C 6.6184448,162.24309 11.520012,147.89673 15.070632,140.83468 26.480325,118.1412 45.986684,99.29801 64.756962,92.83758 73.263985,89.9096 88.967201,89.70705 99,92.3959 c 12.94488,3.46931 35.75462,16.21715 44.85399,25.06787 3.84061,3.73566 1.0067,3.64706 -4.88132,-0.1526 -9.02905,-5.82664 -19.03845,-10.0702 -28.20183,-11.95639 -7.5402,-1.55208 -9.59716,-1.62118 -15.96318,-0.53629 -18.733496,3.19254 -31.183185,13.54826 -37.554325,31.23791 -2.441303,6.77835 -2.683999,8.76184 -2.715565,22.1936 L 54.50311,173 29.663659,173 4.8242083,173 5.5331036,168.75 Z M 83,150 l 0,-23 12.25,0.022 c 14.2301,0.0255 19.35572,1.64264 22.7256,7.1699 4.29939,7.05183 1.71905,19.15781 -4.77332,22.39461 -1.23074,0.61359 -2.54249,1.42041 -2.91502,1.79294 -0.37253,0.37253 2.43587,3.81456 6.24089,7.64896 l 6.91821,6.97163 -8.50734,0 -8.50734,0 -5.38607,-5.45381 c -2.962332,-2.9996 -5.759459,-5.22304 -6.215835,-4.94098 C 94.373399,162.88726 94,165.34148 94,168.05902 L 94,173 l -5.5,0 -5.5,0 0,-23 z m 24.20031,-3.54029 c 0.78587,-1.7248 0.85151,-3.41017 0.20448,-5.25 -0.89245,-2.53768 -1.33235,-2.70971 -6.92887,-2.70971 l -5.97592,0 -0.316635,3.85516 C 93.68718,148.39642 94.26004,149 100.49005,149 c 4.97608,0 5.67304,-0.26385 6.71026,-2.54029 z M 127,155.46788 C 127,129.37268 127.91565,128 145.32251,128 l 10.87749,0 3.4,3.4 3.4,3.4 0,19.1 0,19.1 -5.4425,0 -5.4425,0 -0.3075,-4.25 -0.3075,-4.25 -6.25,-0.29772 -6.25,-0.29771 0,4.54771 0,4.54772 -6,0 -6,0 0,-17.53212 z m 25,-9.34544 c 0,-7.1634 -1.14488,-8.3468 -7.67231,-7.9304 L 139.5,138.5 l -0.29569,6.75 -0.29569,6.75 6.54569,0 6.54569,0 0,-5.87756 z m 18,4.37756 0,-22.5 6,0 6,0 0,22.5 0,22.5 -6,0 -6,0 0,-22.5 z m 18,0 0,-22.5 6,0 6,0 0,16.5 0,16.5 9,0 9,0 0,6 0,6 -15,0 -15,0 0,-22.5 z m 35,17.03383 0,-5.46617 10.75,-0.28383 10.75,-0.28383 0,-3 0,-3 -7.1812,-0.5 c -8.54783,-0.59515 -12.18821,-2.80612 -14.11801,-8.57451 -1.87641,-5.6088 -0.65579,-11.17049 3.32531,-15.15159 L 229.8,128 l 12.1,0 12.1,0 0,5.5 0,5.5 -10.5,0 -10.5,0 0,3 0,3 7.04966,0 c 4.20881,0 8.18182,0.58546 9.85915,1.45284 5.09017,2.63223 7.16607,12.22705 4.18647,19.34987 C 251.79806,171.29427 247.045,173 234.03984,173 L 223,173 l 0,-5.46617 z M 62.02823,168.8868 C 59.063786,167.70376 58.035796,166.25978 58.015313,163.25 58.006192,161.90986 58.606574,161 59.5,161 c 2.338917,0 5.5,3.73583 5.5,6.5 0,1.375 -0.1125,2.47148 -0.25,2.43661 -0.1375,-0.0349 -1.362296,-0.50727 -2.72177,-1.04981 z M 3.75,147.78172 c -3.08100827,-1.06254 -3.24474319,-1.60177 -1.589485,-5.23467 1.2961821,-2.84481 1.6467605,-2.95102 5.236072,-1.58637 2.3105671,0.87848 2.4360682,1.22092 1.4666337,4.00184 -1.3181289,3.78119 -1.7051088,3.99455 -5.1132207,2.8192 z m 56.869171,-3.07092 c -1.294623,-0.94665 -1.58231,-2.00948 -1.082722,-4 0.760914,-3.03172 0.879339,-3.09383 3.363925,-1.76412 1.281385,0.68578 1.645386,1.78818 1.320759,4 -0.497676,3.39089 -1.024417,3.64887 -3.601962,1.76412 z m 9.047496,-19.37747 c -1.147396,-1.14739 -0.729207,-4.03654 0.763594,-5.27545 1.145575,-0.95074 1.657001,-0.76335 2.569394,0.94148 1.553081,2.90195 -1.193523,6.47344 -3.332988,4.33397 z M 23.44113,115.55767 c -1.908266,-1.41791 -1.903104,-1.48086 0.304902,-3.71825 2.053901,-2.08124 2.382177,-2.13978 3.837594,-0.68437 1.353753,1.35376 1.393113,1.90933 0.263421,3.71826 -1.573589,2.51972 -1.873208,2.56625 -4.405917,0.68436 z M 85.186892,112.25 C 85.602611,110.06882 90,109.22231 90,111.32346 90,112.71187 88.000288,114 85.844888,114 c -0.545345,0 -0.841443,-0.7875 -0.657996,-1.75 z M 105,109.5 c 0,-1 1,-1.5 3,-1.5 2,0 3,0.5 3,1.5 0,1 -1,1.5 -3,1.5 -2,0 -3,-0.5 -3,-1.5 z M 48.552563,94.27638 c -0.417672,-1.08843 -7.89e-4,-2.20668 1.131243,-3.03444 1.520091,-1.11152 1.98974,-1.0413 3.088867,0.46185 1.090666,1.49157 1.022581,1.97276 -0.429361,3.03444 -2.295919,1.67882 -3.002324,1.59275 -3.790749,-0.46185 z M 107.25,91.77951 c -2.0868,-1.00643 -3.19824,-3.79677 -1.5,-3.76585 2.83987,0.0517 5.25,1.47619 5.25,3.10297 0,2.11931 -0.53429,2.21375 -3.75,0.66288 z M 75,85 c 0,-2.4756 4.470488,-2.82227 5.393011,-0.41821 C 81.299046,86.94288 81.242519,87 78,87 75.666667,87 75,86.55556 75,85 Z"
     id="path4138"
     inkscape:connector-curvature="0" />
</svg>
